<svg xmlns="http://www.w3.org/2000/svg" width="38" height="38" viewBox="0 0 38 38">
    <g fill="none" fill-rule="evenodd">
        <g>
            <g>
                <path stroke="#FEFEFE" d="M19 .5c5.109 0 9.734 2.07 13.081 5.418C35.43 9.266 37.5 13.891 37.5 19c0 5.109-2.07 9.734-5.418 13.082C28.734 35.429 24.109 37.5 19 37.5c-5.108 0-9.733-2.07-13.081-5.419C2.57 28.733.5 24.11.5 19c0-5.108 2.07-9.733 5.419-13.081C9.267 2.57 13.892.5 19 .5z" transform="translate(-149 -301) translate(149 301)"/>
                <path fill="#FEFEFE" d="M23.071 19.007h-2.663V28.5h-3.945v-9.493h-1.876v-3.354h1.876v-2.17c0-1.555.737-3.983 3.981-3.983l2.922.01v3.258h-2.12c-.346 0-.838.172-.838.914v1.97h3.008l-.345 3.355z" transform="translate(-149 -301) translate(149 301)"/>
            </g>
        </g>
    </g>
</svg>
