<svg xmlns="http://www.w3.org/2000/svg" width="38" height="38" viewBox="0 0 38 38">
    <g fill="none" fill-rule="evenodd">
        <g>
            <g>
                <g>
                    <path stroke="#FEFEFE" d="M19 .5c5.107 0 9.732 2.071 13.08 5.42C35.43 9.267 37.5 13.892 37.5 19c0 5.108-2.071 9.733-5.42 13.08C28.734 35.43 24.109 37.5 19 37.5s-9.733-2.071-13.08-5.42C2.57 28.734.5 24.109.5 19S2.571 9.267 5.92 5.92C9.266 2.57 13.891.5 19 .5z" transform="translate(-358 -1212) translate(100 1073) translate(258 139)"/>
                    <path fill="#FFF" d="M26.331 22.642c-.038.879-.187 1.354-.31 1.67-.3.784-.924 1.406-1.709 1.709-.316.123-.794.27-1.669.309-.95.042-1.235.053-3.636.053-2.402 0-2.69-.011-3.636-.053-.879-.04-1.354-.186-1.67-.31-.39-.144-.746-.372-1.034-.671-.299-.292-.527-.644-.672-1.033-.123-.317-.27-.795-.31-1.671-.042-.95-.052-1.234-.052-3.636 0-2.401.01-2.69.052-3.636.04-.878.187-1.353.31-1.67.145-.39.373-.746.676-1.034.291-.298.642-.527 1.033-.672.316-.123.795-.27 1.67-.308.95-.043 1.234-.054 3.636-.054 2.405 0 2.69.01 3.636.054.88.038 1.354.185 1.67.308.391.145.745.374 1.035.672.298.292.527.644.67 1.035.123.316.272.793.31 1.669.042.95.053 1.235.053 3.636 0 2.402-.01 2.684-.053 3.633m1.621-7.35c-.042-.956-.196-1.613-.418-2.183-.228-.605-.58-1.147-1.04-1.597-.45-.457-.996-.811-1.594-1.037-.573-.222-1.227-.376-2.183-.418-.964-.046-1.27-.057-3.714-.057-2.443 0-2.749.01-3.709.053-.957.042-1.614.197-2.184.419-.605.229-1.146.58-1.596 1.04-.457.45-.813.996-1.037 1.594-.222.573-.377 1.226-.419 2.183-.046.963-.057 1.27-.057 3.713 0 2.444.011 2.75.053 3.71.043.956.197 1.614.42 2.184.227.604.583 1.146 1.04 1.596.45.458.995.812 1.592 1.038.574.22 1.228.376 2.184.418.96.042 1.266.052 3.71.052 2.443 0 2.75-.01 3.71-.052.956-.042 1.613-.197 2.184-.418 1.208-.468 2.166-1.425 2.633-2.634.221-.573.376-1.228.418-2.184.042-.96.053-1.266.053-3.71 0-2.443-.004-2.75-.046-3.71" transform="translate(-358 -1212) translate(100 1073) translate(258 139)"/>
                    <path fill="#FFF" d="M19.003 22.001c-1.656 0-3-1.343-3-2.999 0-1.656 1.344-2.999 3-2.999s3 1.343 3 2.999c0 1.656-1.344 2.999-3 2.999m0-7.623c-2.553 0-4.624 2.071-4.624 4.624 0 2.553 2.07 4.624 4.624 4.624 2.553 0 4.624-2.071 4.624-4.624 0-2.553-2.071-4.624-4.624-4.624M24.89 14.195c0 .596-.483 1.08-1.08 1.08-.596 0-1.08-.484-1.08-1.08 0-.597.484-1.08 1.08-1.08.597 0 1.08.483 1.08 1.08" transform="translate(-358 -1212) translate(100 1073) translate(258 139)"/>
                </g>
            </g>
        </g>
    </g>
</svg>
